# xmcd CD database file
#
# Track frame offsets:
#	150
#	5816
#	22355
#	35828
#	42055
#	59717
#	75831
#	95474
#	105902
#	131520
#	147061
#	170315
#	192978
#	218197
#
# Disc length: 2943 seconds
#
# Revision: 0
# Processed by: cddbd v1.5.1PL2 Copyright (c) Steve Scherf et al.
# Submitted via: CDex 1.51
#
DISCID=bd0b7d0e
DTITLE=Rory Block - I'm Every Woman
DYEAR=2002
DGENRE=Blues
TTITLE0=Guitar Ditty
TTITLE1=I'm Every Woman
TTITLE2=Fool for you
TTITLE3=Sea Lion Woman
TTITLE4=Ain't No Grave Can Hold My Body Down
TTITLE5=Tired of Being Alone
TTITLE6=Love TKO
TTITLE7=Rock Island Line
TTITLE8=Talkiin' "Bout My Man
TTITLE9=Ain't Nothing Like The Real Thing
TTITLE10=Pretty Polly
TTITLE11=Hold on/Change is Coming
TTITLE12=I Feel Like Breaking Up Somebody's Home
TTITLE13=Guitar mDitty 2
EXTD=YEAR: 2002
EXTT0=
EXTT1=
EXTT2=
EXTT3=
EXTT4=
EXTT5=
EXTT6=
EXTT7=
EXTT8=
EXTT9=
EXTT10=
EXTT11=
EXTT12=
EXTT13=
PLAYORDER=
